<svg id="svg" version="1.1" xmlns="http://www.w3.org/2000/svg" xmlns:xlink="http://www.w3.org/1999/xlink" width="400" height="400" viewBox="0, 0, 400,400"><g id="svgg"><path id="path0" d="M0.000 200.000 L 0.000 400.000 200.000 400.000 L 400.000 400.000 400.000 200.000 L 400.000 0.000 200.000 0.000 L 0.000 0.000 0.000 200.000 M230.000 8.352 L 233.000 8.600 233.200 10.600 L 233.400 12.600 235.800 12.907 C 237.120 13.076,242.812 13.366,248.448 13.552 C 260.003 13.932,259.600 13.837,259.600 16.175 C 259.600 18.588,259.979 18.759,265.625 18.887 L 270.600 19.000 270.800 21.200 L 271.000 23.400 275.800 23.805 C 281.546 24.290,281.600 24.318,281.600 26.776 L 281.600 28.704 284.100 28.962 C 285.475 29.104,287.727 29.327,289.104 29.457 C 291.853 29.717,291.876 29.745,292.093 33.000 C 292.200 34.596,292.204 34.600,294.000 34.705 C 297.527 34.912,297.600 34.966,297.600 37.360 L 297.600 39.504 300.100 39.772 C 301.475 39.920,303.680 40.167,305.000 40.320 L 307.400 40.600 307.526 42.597 C 307.694 45.261,308.419 46.000,310.862 46.000 L 312.800 46.000 312.800 47.869 C 312.800 50.411,313.573 51.200,316.062 51.200 L 318.000 51.200 318.000 53.138 C 318.000 55.581,318.739 56.306,321.403 56.474 L 323.400 56.600 323.800 61.284 C 324.257 66.632,324.300 66.709,327.000 66.876 L 329.000 67.000 329.124 69.188 C 329.280 71.935,329.616 72.330,331.932 72.479 L 333.800 72.600 334.117 75.000 C 334.291 76.320,334.561 78.570,334.717 80.000 L 335.000 82.600 337.191 82.724 C 339.967 82.881,339.987 82.919,339.994 88.276 C 340.001 93.316,339.981 93.280,343.000 93.593 L 345.000 93.800 345.113 98.575 C 345.243 104.018,345.423 104.400,347.862 104.400 C 350.041 104.400,349.875 103.868,350.490 112.800 L 351.000 120.200 353.200 120.400 L 355.400 120.600 355.648 123.600 C 355.784 125.250,355.919 128.520,355.948 130.867 C 356.015 136.364,356.031 136.400,358.419 136.400 C 360.985 136.400,360.812 135.596,361.211 149.328 C 361.620 163.401,361.483 162.721,363.935 162.880 L 365.800 163.000 366.081 165.800 C 366.236 167.340,366.550 173.180,366.780 178.779 C 367.242 190.047,367.101 189.501,369.600 189.675 L 371.400 189.800 371.648 192.800 C 371.784 194.450,371.938 199.130,371.991 203.200 C 372.044 207.270,372.202 211.680,372.343 213.000 L 372.600 215.400 374.800 215.600 L 377.000 215.800 377.300 223.400 C 377.661 232.527,377.469 231.929,380.079 232.078 L 382.200 232.200 382.501 235.800 C 382.667 237.780,382.757 252.090,382.701 267.600 L 382.600 295.800 380.400 295.923 C 377.450 296.088,377.429 296.126,377.200 301.718 L 377.000 306.600 372.000 306.800 L 367.000 307.000 366.901 311.400 C 366.761 317.666,366.788 317.600,364.416 317.600 C 361.906 317.600,361.879 317.652,361.400 323.400 L 361.000 328.200 358.800 328.400 L 356.600 328.600 356.200 333.600 L 355.800 338.600 353.400 338.800 L 351.000 339.000 350.876 341.188 C 350.718 343.985,350.341 344.400,347.959 344.400 C 345.682 344.400,345.807 344.115,345.323 350.400 L 345.000 354.600 342.600 354.800 L 340.200 355.000 340.000 357.400 L 339.800 359.800 337.400 360.000 L 335.000 360.200 334.800 362.600 L 334.600 365.000 332.171 365.233 C 328.996 365.537,328.800 365.697,328.800 367.987 L 328.800 369.926 326.700 370.155 C 325.545 370.281,323.340 370.523,321.800 370.692 L 319.000 371.000 318.800 373.400 L 318.600 375.800 310.800 376.000 L 303.000 376.200 302.800 378.600 L 302.600 381.000 292.200 381.200 C 280.475 381.425,280.800 381.346,280.800 383.987 L 280.800 385.926 278.500 386.204 C 277.235 386.357,266.675 386.557,255.033 386.648 C 231.745 386.831,232.905 386.681,232.721 389.532 L 232.600 391.400 229.800 391.650 C 224.815 392.096,176.019 392.038,175.174 391.586 C 174.573 391.265,174.400 390.741,174.400 389.246 L 174.400 387.320 170.739 387.060 C 168.725 386.917,158.209 386.800,147.371 386.800 C 124.964 386.800,126.400 386.964,126.400 384.406 C 126.400 381.535,126.504 381.564,115.317 381.265 L 105.400 381.000 105.280 378.700 C 105.214 377.435,105.124 376.365,105.080 376.322 C 105.036 376.279,101.490 376.144,97.200 376.022 L 89.400 375.800 89.200 373.400 L 89.000 371.000 86.600 370.800 L 84.200 370.600 84.077 368.400 C 83.924 365.669,83.711 365.455,80.883 365.203 C 78.605 365.000,78.600 364.997,78.492 363.600 C 78.258 360.562,78.197 360.490,75.701 360.252 C 74.436 360.131,72.320 359.890,71.000 359.716 L 68.600 359.400 68.284 357.000 C 68.110 355.680,67.869 353.564,67.748 352.299 C 67.510 349.803,67.438 349.742,64.400 349.508 C 63.003 349.400,63.000 349.395,62.797 347.117 C 62.545 344.289,62.331 344.076,59.600 343.923 L 57.400 343.800 57.200 341.400 L 57.000 339.000 54.933 338.880 C 52.163 338.720,52.044 338.487,51.913 332.975 L 51.800 328.200 49.400 328.000 L 47.000 327.800 46.887 323.025 C 46.754 317.438,46.626 317.200,43.759 317.200 C 41.388 317.200,41.328 317.122,41.107 313.800 L 41.000 312.200 38.600 312.000 L 36.200 311.800 36.000 309.400 L 35.800 307.000 33.400 306.800 L 31.000 306.600 30.747 304.000 C 30.607 302.570,30.472 300.278,30.447 298.908 C 30.395 296.147,30.378 296.132,27.000 295.907 L 25.400 295.800 25.298 261.731 C 25.182 223.247,24.903 226.400,28.429 226.400 C 30.311 226.400,30.400 226.350,30.407 225.300 C 30.449 218.490,31.266 206.205,31.694 205.933 C 31.972 205.757,32.962 205.609,33.892 205.606 C 36.088 205.598,35.949 206.639,36.087 189.132 C 36.214 172.946,36.040 173.899,38.925 173.609 L 41.000 173.400 41.268 162.843 C 41.565 151.175,41.447 151.616,44.276 151.606 C 46.547 151.598,46.460 151.979,46.746 140.864 L 47.000 131.000 49.400 130.800 L 51.800 130.600 52.022 122.800 C 52.144 118.510,52.279 114.964,52.322 114.920 C 52.365 114.876,53.435 114.786,54.700 114.720 L 57.000 114.600 57.261 109.400 C 57.405 106.540,57.652 103.075,57.809 101.700 L 58.096 99.200 60.034 99.200 C 62.599 99.200,62.800 98.751,62.800 93.034 C 62.800 87.850,62.604 88.146,66.200 87.907 L 67.800 87.800 68.114 83.400 C 68.511 77.827,68.434 78.000,70.507 78.000 C 72.742 78.000,73.200 77.490,73.200 75.000 C 73.200 72.438,73.645 72.000,76.253 72.000 C 78.742 72.000,78.637 72.217,79.008 66.300 L 79.277 62.000 80.865 62.000 C 83.461 62.000,84.000 61.496,84.000 59.066 C 84.000 56.432,84.433 56.000,87.072 56.000 C 89.407 56.000,89.472 55.916,89.693 52.600 L 89.800 51.000 92.200 50.800 L 94.600 50.600 94.800 48.200 L 95.000 45.800 96.600 45.693 C 99.916 45.472,100.000 45.407,100.000 43.072 C 100.000 40.433,100.432 40.000,103.066 40.000 C 105.496 40.000,106.000 39.461,106.000 36.866 L 106.000 35.279 110.549 34.995 C 116.041 34.652,115.922 34.716,116.076 31.991 L 116.200 29.800 118.395 29.676 C 121.164 29.519,121.925 28.854,122.080 26.456 L 122.200 24.600 127.200 24.200 L 132.200 23.800 132.400 21.600 L 132.600 19.400 135.200 19.147 C 136.630 19.007,139.969 18.872,142.620 18.847 C 148.135 18.793,148.400 18.662,148.400 15.979 L 148.400 14.119 151.700 13.862 C 153.515 13.720,157.823 13.604,161.274 13.602 C 169.044 13.599,169.600 13.430,169.600 11.059 C 169.600 8.612,169.970 8.443,175.625 8.299 C 184.939 8.063,226.988 8.104,230.000 8.352 M190.935 40.624 C 190.482 41.807,191.066 46.789,191.747 47.542 C 192.106 47.938,192.400 48.568,192.400 48.941 C 192.400 49.880,193.751 50.306,197.763 50.631 L 201.200 50.910 201.200 52.681 C 201.200 55.470,201.669 56.000,204.134 56.000 C 206.732 56.000,207.200 56.440,207.200 58.880 L 207.200 60.800 209.100 60.814 C 210.145 60.822,211.450 61.086,212.000 61.400 C 212.550 61.714,213.855 61.978,214.900 61.986 L 216.800 62.000 216.800 63.986 C 216.800 66.360,217.357 66.800,220.366 66.800 C 222.595 66.800,222.674 66.906,222.893 70.200 L 223.000 71.800 224.990 71.926 C 228.224 72.130,229.193 74.360,226.948 76.430 C 226.370 76.964,225.648 77.985,225.343 78.700 C 224.890 79.763,224.566 80.000,223.566 80.000 C 221.956 80.000,218.800 81.856,218.800 82.802 C 218.800 83.620,216.648 85.600,215.759 85.600 C 215.441 85.600,215.008 86.052,214.798 86.605 C 214.588 87.158,214.005 87.797,213.503 88.026 C 213.001 88.254,212.286 88.972,211.914 89.621 C 211.542 90.269,210.914 90.803,210.519 90.807 C 210.123 90.810,208.002 92.617,205.804 94.822 L 201.809 98.831 199.004 98.716 L 196.200 98.600 196.093 97.000 C 195.871 93.670,195.816 93.600,193.406 93.600 C 190.853 93.600,190.400 93.093,190.400 90.234 C 190.400 88.180,190.365 88.160,186.306 87.888 C 183.717 87.715,182.675 87.017,181.930 84.957 C 181.343 83.334,180.904 83.118,177.600 82.828 L 175.000 82.600 175.000 79.400 C 175.000 76.401,175.056 76.192,175.886 76.074 C 176.828 75.940,178.800 73.881,178.800 73.032 C 178.800 70.616,183.657 68.460,185.284 70.154 C 185.788 70.678,186.844 71.312,187.631 71.562 C 189.610 72.191,190.969 74.134,191.014 76.400 L 191.049 78.200 192.799 78.437 C 194.108 78.614,194.815 78.992,195.604 79.937 C 196.184 80.632,197.028 81.200,197.480 81.200 C 197.932 81.200,198.526 81.470,198.800 81.800 C 199.613 82.779,201.538 82.517,203.200 81.200 C 204.033 80.540,204.996 80.000,205.339 80.000 C 206.154 80.000,208.000 78.145,208.000 77.327 C 208.000 76.976,208.720 75.908,209.600 74.954 C 211.638 72.743,211.621 72.622,209.093 71.427 C 207.934 70.878,206.359 69.778,205.593 68.982 C 204.827 68.186,203.030 66.990,201.600 66.325 C 198.624 64.940,197.200 63.778,197.200 62.736 C 197.200 62.298,196.685 61.791,195.900 61.457 C 195.185 61.152,194.164 60.430,193.630 59.852 C 192.973 59.138,192.250 58.800,191.384 58.800 C 189.852 58.800,188.000 57.454,188.000 56.340 C 188.000 55.295,185.893 53.200,184.843 53.200 C 184.392 53.200,183.619 52.652,183.123 51.982 C 181.540 49.840,180.248 50.426,180.000 53.400 L 179.800 55.800 177.400 56.000 L 175.000 56.200 174.800 58.600 L 174.600 61.000 170.400 61.323 C 164.115 61.807,164.400 61.682,164.400 63.959 C 164.400 66.341,163.985 66.718,161.188 66.876 L 159.000 67.000 158.800 69.400 L 158.600 71.800 156.331 72.002 C 153.488 72.256,153.743 71.798,153.413 77.222 C 153.087 82.562,153.146 82.681,156.210 82.874 L 158.200 83.000 158.320 85.067 C 158.466 87.590,158.825 87.918,161.612 88.076 L 163.800 88.200 164.000 90.600 L 164.200 93.000 166.388 93.124 C 169.236 93.285,169.600 93.640,169.600 96.249 C 169.600 98.305,169.646 98.400,170.653 98.400 C 172.861 98.400,175.200 100.523,175.200 102.528 C 175.200 103.383,175.430 103.544,176.990 103.778 C 178.167 103.954,179.333 104.508,180.399 105.399 C 181.289 106.143,182.416 106.878,182.903 107.033 C 183.390 107.187,185.375 108.863,187.314 110.757 C 190.986 114.342,191.543 114.722,193.200 114.777 C 194.020 114.804,194.416 115.260,195.400 117.305 L 196.600 119.800 201.200 119.661 C 206.576 119.499,206.143 119.732,206.398 116.869 L 206.600 114.600 208.200 114.493 C 211.531 114.271,211.600 114.217,211.600 111.800 C 211.600 109.361,211.664 109.313,215.200 109.105 L 217.000 109.000 217.200 106.600 L 217.400 104.200 219.000 104.093 C 221.638 103.918,222.400 103.638,222.400 102.847 C 222.400 102.039,226.052 98.407,226.883 98.389 C 227.712 98.372,230.360 95.697,230.636 94.599 C 230.793 93.974,231.265 93.499,231.883 93.343 C 234.077 92.793,239.200 86.969,239.200 85.026 L 239.200 83.271 241.500 83.049 C 242.765 82.926,244.970 82.685,246.400 82.513 L 249.000 82.200 249.000 77.200 L 249.000 72.200 246.600 72.000 L 244.200 71.800 244.000 69.400 L 243.800 67.000 242.000 66.895 C 238.561 66.693,238.455 66.619,238.321 64.339 C 238.170 61.774,238.084 61.728,232.600 61.324 L 228.200 61.000 228.000 58.600 L 227.800 56.200 225.400 56.000 C 223.074 55.806,222.997 55.763,222.894 54.600 C 222.559 50.795,222.563 50.800,220.262 50.800 C 217.634 50.800,217.200 50.366,217.200 47.738 C 217.200 45.423,217.162 45.398,213.200 45.104 C 211.810 45.001,211.799 44.985,211.600 42.800 L 211.400 40.600 208.800 40.347 C 202.933 39.775,191.191 39.958,190.935 40.624 M165.600 187.424 C 165.600 188.416,198.995 221.600,199.994 221.600 C 200.988 221.600,234.400 188.402,234.400 187.415 C 234.400 186.866,230.688 186.800,200.000 186.800 C 169.109 186.800,165.600 186.864,165.600 187.424 " stroke="none" fill="#ffffff" fill-rule="evenodd"></path><path id="path1" d="M174.900 8.699 L 170.000 8.825 170.000 10.798 C 170.000 13.517,169.766 13.592,161.126 13.643 C 157.097 13.667,152.720 13.802,151.400 13.943 L 149.000 14.200 148.783 16.083 C 148.491 18.628,148.631 18.564,142.668 18.872 C 139.771 19.021,136.365 19.268,135.100 19.421 L 132.800 19.699 132.800 21.440 C 132.800 23.828,132.008 24.244,126.824 24.578 C 121.835 24.900,122.000 24.818,122.000 26.944 C 122.000 29.184,121.487 29.600,118.728 29.600 C 116.166 29.600,116.130 29.643,115.907 33.000 L 115.800 34.600 113.200 34.873 C 111.770 35.024,109.565 35.271,108.300 35.423 L 106.000 35.699 106.000 37.635 C 106.000 39.956,105.427 40.400,102.426 40.400 L 100.400 40.400 100.400 42.520 C 100.400 45.169,99.970 45.600,97.328 45.600 C 94.993 45.600,94.928 45.684,94.707 49.000 C 94.603 50.562,94.562 50.603,93.000 50.707 C 89.684 50.928,89.600 50.993,89.600 53.328 C 89.600 55.970,89.169 56.400,86.520 56.400 L 84.400 56.400 84.400 58.524 C 84.400 61.248,83.861 61.932,81.600 62.081 L 79.800 62.200 79.494 64.200 C 79.326 65.300,79.056 67.460,78.894 69.000 L 78.600 71.800 76.200 72.000 L 73.800 72.200 73.600 74.680 C 73.361 77.639,73.136 77.912,70.800 78.075 L 69.000 78.200 68.693 80.400 C 68.524 81.610,68.279 83.817,68.148 85.304 C 67.885 88.278,67.890 88.274,64.600 88.493 L 63.000 88.600 62.800 93.716 C 62.576 99.437,62.500 99.584,59.759 99.594 L 58.117 99.600 57.859 102.660 C 57.716 104.344,57.600 107.479,57.600 109.628 C 57.600 114.783,57.591 114.800,54.945 114.800 C 52.249 114.800,52.428 114.273,52.084 123.231 L 51.800 130.600 49.810 130.726 C 46.752 130.919,46.806 130.771,46.750 138.949 C 46.723 142.937,46.588 147.460,46.450 149.000 L 46.200 151.800 44.000 152.000 L 41.800 152.200 41.540 162.508 C 41.233 174.680,41.392 174.000,38.850 174.000 L 36.874 174.000 36.605 176.300 C 36.457 177.565,36.253 184.530,36.152 191.778 C 35.950 206.289,36.006 206.000,33.390 206.000 L 31.677 206.000 31.412 208.100 C 31.266 209.255,31.058 213.705,30.949 217.989 C 30.724 226.840,30.738 226.800,27.749 226.800 L 25.596 226.800 25.698 261.300 L 25.800 295.800 28.097 295.920 C 30.830 296.062,30.758 295.906,30.901 302.000 L 31.000 306.200 32.600 306.307 C 35.916 306.528,36.000 306.593,36.000 308.928 C 36.000 311.569,36.431 312.000,39.072 312.000 C 41.407 312.000,41.472 312.084,41.693 315.400 L 41.800 317.000 44.200 317.200 L 46.600 317.400 46.712 322.495 C 46.837 328.208,46.618 327.855,50.200 328.093 L 51.800 328.200 52.000 333.200 L 52.200 338.200 54.469 338.402 C 57.267 338.652,57.348 338.733,57.598 341.531 L 57.800 343.800 60.200 344.000 L 62.600 344.200 62.800 346.800 L 63.000 349.400 65.300 349.520 L 67.600 349.640 67.602 351.520 C 67.604 352.554,67.874 353.916,68.202 354.546 C 68.531 355.176,68.800 356.481,68.800 357.446 L 68.800 359.200 70.554 359.200 C 71.519 359.200,72.824 359.469,73.454 359.798 C 74.084 360.126,75.446 360.396,76.480 360.398 L 78.360 360.400 78.480 362.700 L 78.600 365.000 81.200 365.200 L 83.800 365.400 84.000 367.800 L 84.200 370.200 86.469 370.402 C 89.267 370.652,89.348 370.733,89.598 373.531 L 89.800 375.800 97.400 376.000 L 105.000 376.200 105.107 377.800 C 105.353 381.501,104.624 381.194,113.308 381.247 C 117.538 381.272,122.170 381.407,123.600 381.547 L 126.200 381.800 126.400 384.000 L 126.600 386.200 150.163 386.442 C 176.714 386.715,174.800 386.452,174.800 389.831 L 174.800 391.509 185.401 391.804 C 196.816 392.121,226.271 391.789,230.200 391.299 L 232.600 391.000 232.800 389.000 L 233.000 387.000 236.400 386.740 C 238.270 386.597,247.900 386.444,257.800 386.400 C 267.700 386.357,276.790 386.204,278.000 386.060 L 280.200 385.800 280.417 383.917 C 280.719 381.289,280.171 381.421,291.733 381.200 L 302.200 381.000 302.307 379.400 C 302.552 375.724,301.829 376.031,310.505 375.909 L 318.200 375.800 318.406 373.482 C 318.661 370.621,318.737 370.574,323.711 370.231 C 328.504 369.901,328.398 369.949,328.406 368.076 C 328.416 365.816,328.862 365.425,331.685 365.200 L 334.200 365.000 334.307 363.400 C 334.528 360.084,334.593 360.000,336.928 360.000 C 339.569 360.000,340.000 359.569,340.000 356.928 C 340.000 354.593,340.084 354.528,343.400 354.307 L 345.000 354.200 345.354 349.300 L 345.708 344.400 347.421 344.400 C 350.144 344.400,350.399 344.183,350.406 341.857 C 350.415 339.031,350.755 338.649,353.478 338.406 C 355.123 338.260,355.816 338.027,355.873 337.600 C 355.918 337.270,356.072 335.065,356.216 332.700 L 356.477 328.400 358.138 328.394 C 360.845 328.384,360.954 328.194,361.400 322.716 L 361.800 317.800 364.000 317.600 L 366.200 317.400 366.551 312.155 L 366.901 306.909 371.951 306.555 L 377.000 306.200 377.200 301.200 L 377.400 296.200 379.800 296.000 L 382.200 295.800 382.302 264.225 C 382.384 239.230,382.300 232.584,381.902 232.331 C 381.626 232.156,380.564 232.009,379.543 232.006 C 377.148 231.998,377.200 232.185,377.200 223.581 C 377.200 215.520,377.231 215.600,374.063 215.600 L 372.474 215.600 372.235 213.300 C 372.103 212.035,371.834 206.590,371.638 201.200 C 371.441 195.810,371.262 191.085,371.240 190.700 C 371.208 190.144,370.833 190.000,369.414 190.000 C 366.819 190.000,366.813 189.975,366.413 176.205 C 366.018 162.620,366.125 163.200,364.025 163.200 C 361.593 163.200,361.565 163.088,361.165 151.516 C 360.964 145.732,360.693 140.055,360.562 138.900 L 360.323 136.800 358.610 136.800 C 356.309 136.800,356.148 136.486,355.845 131.400 C 355.700 128.980,355.470 125.605,355.333 123.900 L 355.085 120.800 353.391 120.800 C 351.015 120.800,350.954 120.634,350.414 112.605 C 349.850 104.238,350.039 104.800,347.790 104.800 C 345.450 104.800,345.200 104.246,345.200 99.059 C 345.200 93.660,345.173 93.600,342.781 93.600 C 340.311 93.600,340.278 93.536,339.800 87.800 L 339.400 83.000 337.100 82.880 C 335.835 82.814,334.782 82.724,334.760 82.680 C 334.738 82.636,334.513 80.440,334.260 77.800 L 333.800 73.000 332.008 72.872 C 329.599 72.701,329.201 72.274,329.194 69.851 C 329.186 67.125,328.957 66.869,326.391 66.724 L 324.200 66.600 323.892 63.800 C 323.723 62.260,323.481 60.055,323.355 58.900 L 323.126 56.800 321.225 56.800 C 318.776 56.800,318.000 55.999,318.000 53.469 L 318.000 51.600 316.244 51.600 C 313.783 51.600,312.709 50.632,312.425 48.155 L 312.200 46.200 310.401 46.072 C 307.945 45.898,307.200 45.130,307.200 42.775 L 307.200 40.874 305.000 40.637 C 303.790 40.507,301.765 40.297,300.500 40.170 C 297.795 39.900,297.200 39.323,297.200 36.966 C 297.200 35.054,296.851 34.800,294.216 34.800 C 292.105 34.800,291.686 34.331,291.526 31.790 L 291.400 29.800 286.683 29.400 C 281.428 28.954,281.216 28.828,281.206 26.145 L 281.200 24.490 278.500 24.258 C 277.015 24.130,274.675 23.908,273.300 23.765 L 270.800 23.504 270.800 21.632 C 270.800 18.923,270.547 18.800,265.000 18.800 C 259.508 18.800,259.200 18.659,259.200 16.144 C 259.200 13.839,259.831 13.963,246.138 13.579 C 232.635 13.201,232.800 13.237,232.800 10.610 L 232.800 8.919 229.500 8.662 C 226.315 8.414,184.904 8.442,174.900 8.699 M208.540 40.259 L 211.600 40.517 211.600 42.085 C 211.600 44.661,212.108 45.200,214.534 45.200 C 217.170 45.200,217.600 45.632,217.600 48.280 L 217.600 50.400 219.720 50.400 C 222.369 50.400,222.800 50.830,222.800 53.472 C 222.800 55.807,222.884 55.872,226.200 56.093 L 227.800 56.200 228.002 58.469 C 228.255 61.302,227.759 61.028,233.400 61.445 L 238.200 61.800 238.400 64.000 L 238.600 66.200 240.400 66.305 C 243.920 66.512,244.000 66.570,244.000 68.928 C 244.000 71.569,244.431 72.000,247.072 72.000 C 249.702 72.000,249.778 72.211,249.327 78.235 L 249.000 82.600 246.400 82.868 C 244.970 83.016,242.855 83.264,241.700 83.419 L 239.600 83.702 239.600 85.199 C 239.600 86.834,233.816 93.140,231.879 93.616 C 231.378 93.740,230.947 94.200,230.876 94.688 C 230.735 95.658,227.511 98.800,226.656 98.800 C 225.836 98.800,222.926 101.843,222.635 103.005 C 222.406 103.914,222.195 104.000,220.182 104.000 C 217.686 104.000,217.200 104.591,217.200 107.626 L 217.200 109.200 215.029 109.200 C 212.248 109.200,211.600 109.810,211.600 112.429 L 211.600 114.400 209.480 114.400 C 206.840 114.400,206.400 114.832,206.400 117.421 L 206.400 119.483 203.340 119.741 C 201.656 119.884,199.421 120.000,198.373 120.000 L 196.467 120.000 195.200 117.400 C 194.012 114.962,193.849 114.800,192.581 114.800 C 191.426 114.800,190.712 114.302,187.714 111.411 C 185.781 109.547,183.660 107.805,183.000 107.540 C 182.340 107.275,181.039 106.370,180.109 105.529 C 179.067 104.586,178.021 104.000,177.383 104.000 C 175.648 104.000,174.800 103.307,174.797 101.886 C 174.794 100.411,172.892 98.800,171.155 98.800 C 169.666 98.800,169.200 98.066,169.200 95.720 L 169.200 93.600 167.233 93.600 C 164.220 93.600,164.000 93.424,164.000 91.006 C 164.000 88.444,163.626 88.085,160.788 87.924 L 158.600 87.800 158.480 85.503 C 158.348 82.972,158.290 82.926,155.000 82.707 L 153.400 82.600 153.284 78.200 C 153.121 72.051,153.141 72.000,155.728 72.000 C 158.370 72.000,158.800 71.569,158.800 68.920 L 158.800 66.800 160.971 66.800 C 163.736 66.800,164.400 66.185,164.400 63.626 L 164.400 61.708 169.300 61.354 L 174.200 61.000 174.307 59.400 C 174.528 56.084,174.593 56.000,176.928 56.000 C 179.565 56.000,180.000 55.568,180.000 52.947 C 180.000 50.078,181.037 49.688,183.159 51.760 C 183.970 52.552,184.997 53.200,185.442 53.200 C 186.197 53.200,188.000 55.124,188.000 55.930 C 188.000 56.993,189.724 58.400,191.028 58.400 C 192.032 58.400,192.812 58.774,193.947 59.800 C 194.800 60.570,195.794 61.200,196.157 61.200 C 196.520 61.200,197.028 61.695,197.285 62.300 C 197.908 63.766,199.205 65.200,199.907 65.200 C 200.219 65.200,200.931 65.560,201.491 66.000 C 202.050 66.440,202.747 66.800,203.039 66.800 C 203.330 66.800,204.408 67.615,205.433 68.611 C 206.458 69.607,208.264 70.880,209.448 71.440 C 212.049 72.671,212.048 72.656,209.800 74.936 C 208.810 75.941,208.000 77.074,208.000 77.455 C 208.000 78.363,206.446 80.000,205.584 80.000 C 205.213 80.000,204.299 80.532,203.555 81.181 C 201.231 83.210,197.887 82.660,195.207 79.807 C 194.642 79.206,193.819 78.800,193.163 78.800 C 191.195 78.800,190.800 78.440,190.800 76.650 C 190.800 74.311,189.284 72.177,187.172 71.544 C 186.281 71.278,185.377 70.731,185.162 70.330 C 184.143 68.424,178.800 71.153,178.800 73.579 C 178.800 74.385,177.449 75.656,175.882 76.323 C 174.796 76.786,174.767 76.877,174.882 79.500 L 175.000 82.200 177.400 82.445 C 180.609 82.773,181.656 83.347,182.553 85.270 C 183.467 87.229,185.055 88.000,188.180 88.000 C 190.620 88.000,190.671 88.064,190.893 91.400 C 190.997 92.962,191.038 93.003,192.600 93.107 C 195.935 93.329,196.000 93.381,196.000 95.818 C 196.000 100.710,200.303 100.121,205.897 94.465 C 208.251 92.085,210.239 90.400,210.694 90.400 C 211.136 90.400,211.669 89.966,211.930 89.394 C 212.182 88.841,212.827 88.188,213.363 87.944 C 213.900 87.700,214.445 87.075,214.575 86.556 C 214.717 85.991,215.212 85.512,215.807 85.362 C 216.846 85.102,218.800 83.082,218.800 82.269 C 218.800 81.624,221.967 79.998,223.220 79.999 C 224.388 80.000,225.200 79.338,225.200 78.384 C 225.200 78.024,225.843 77.143,226.629 76.428 C 227.508 75.628,227.970 74.898,227.829 74.531 C 227.703 74.203,227.600 73.589,227.600 73.167 C 227.600 72.519,227.304 72.399,225.700 72.394 C 223.040 72.385,222.646 72.018,222.406 69.318 L 222.200 67.000 219.733 66.800 C 216.783 66.561,216.693 66.487,216.417 64.083 L 216.200 62.200 214.000 61.886 C 212.790 61.713,210.720 61.443,209.400 61.286 L 207.000 61.000 206.880 58.703 C 206.747 56.149,206.696 56.110,203.200 55.905 L 201.400 55.800 201.200 53.400 C 201.016 51.188,200.922 50.994,200.000 50.920 C 199.450 50.876,197.623 50.727,195.941 50.589 L 192.882 50.339 191.840 48.331 C 190.734 46.199,190.127 42.744,190.556 41.032 L 190.815 40.000 198.147 40.000 C 202.180 40.000,206.856 40.116,208.540 40.259 M119.800 170.000 L 119.800 185.000 109.400 185.000 L 99.000 185.000 98.895 170.402 C 98.837 162.373,98.878 155.575,98.985 155.295 C 99.137 154.898,101.440 154.810,109.490 154.893 L 119.800 155.000 119.800 170.000 M297.000 170.000 L 297.000 185.000 286.600 185.000 L 276.200 185.000 276.095 170.402 C 276.037 162.373,276.078 155.575,276.185 155.295 C 276.337 154.898,278.640 154.810,286.690 154.893 L 297.000 155.000 297.000 170.000 M234.167 186.643 C 234.515 186.776,234.800 187.091,234.800 187.341 C 234.800 188.029,200.694 222.000,200.003 222.000 C 199.304 222.000,165.200 188.032,165.200 187.335 C 165.200 187.077,165.425 186.776,165.700 186.665 C 166.421 186.374,233.411 186.352,234.167 186.643 " stroke="none" fill="#040406" fill-rule="evenodd"></path><path id="path2" d="M192.100 8.300 C 198.645 8.361,209.355 8.361,215.900 8.300 C 222.445 8.238,217.090 8.188,204.000 8.188 C 190.910 8.188,185.555 8.238,192.100 8.300 M172.716 8.697 C 174.099 8.775,176.259 8.774,177.516 8.695 C 178.772 8.616,177.640 8.552,175.000 8.553 C 172.360 8.553,171.332 8.618,172.716 8.697 M230.598 8.687 L 232.800 8.840 232.800 10.540 C 232.800 12.755,233.327 13.214,235.780 13.135 L 237.800 13.070 235.600 12.835 L 233.400 12.600 233.200 10.600 L 233.000 8.600 230.698 8.567 L 228.396 8.534 230.598 8.687 M169.593 11.081 C 169.487 12.225,169.547 13.015,169.726 12.835 C 169.905 12.656,169.991 11.719,169.918 10.754 L 169.785 9.000 169.593 11.081 M148.432 15.900 C 148.466 17.991,148.661 17.822,148.891 15.500 C 148.972 14.675,148.896 14.000,148.720 14.000 C 148.544 14.000,148.414 14.855,148.432 15.900 M259.137 16.020 C 259.223 17.234,259.524 18.151,259.937 18.463 C 260.496 18.883,260.522 18.873,260.100 18.401 C 259.825 18.092,259.600 17.077,259.600 16.144 C 259.600 15.211,259.465 14.364,259.300 14.261 C 259.135 14.159,259.062 14.950,259.137 16.020 M132.561 19.758 C 132.443 20.065,132.418 21.010,132.506 21.858 C 132.659 23.340,132.668 23.327,132.733 21.522 L 132.800 19.644 134.700 19.494 L 136.600 19.344 134.687 19.272 C 133.368 19.222,132.708 19.373,132.561 19.758 M128.100 24.287 C 128.705 24.378,129.695 24.378,130.300 24.287 C 130.905 24.195,130.410 24.120,129.200 24.120 C 127.990 24.120,127.495 24.195,128.100 24.287 M277.300 24.287 C 277.905 24.378,278.895 24.378,279.500 24.287 C 280.105 24.195,279.610 24.120,278.400 24.120 C 277.190 24.120,276.695 24.195,277.300 24.287 M122.252 24.716 C 122.144 24.890,122.718 24.970,123.528 24.893 C 126.002 24.659,126.293 24.495,124.324 24.446 C 123.292 24.421,122.359 24.542,122.252 24.716 M281.309 26.400 C 281.309 27.390,281.387 27.795,281.482 27.300 C 281.578 26.805,281.578 25.995,281.482 25.500 C 281.387 25.005,281.309 25.410,281.309 26.400 M282.905 29.087 C 283.514 29.179,284.414 29.177,284.905 29.082 C 285.397 28.987,284.900 28.911,283.800 28.914 C 282.700 28.917,282.297 28.995,282.905 29.087 M291.714 32.200 C 291.717 33.300,291.795 33.703,291.887 33.095 C 291.979 32.486,291.977 31.586,291.882 31.095 C 291.787 30.603,291.711 31.100,291.714 32.200 M106.905 35.487 C 107.514 35.579,108.414 35.577,108.905 35.482 C 109.397 35.387,108.900 35.311,107.800 35.314 C 106.700 35.317,106.297 35.395,106.905 35.487 M297.314 37.000 C 297.317 38.100,297.395 38.503,297.487 37.895 C 297.579 37.286,297.577 36.386,297.482 35.895 C 297.387 35.403,297.311 35.900,297.314 37.000 M298.905 39.887 C 299.514 39.979,300.414 39.977,300.905 39.882 C 301.397 39.787,300.900 39.711,299.800 39.714 C 298.700 39.717,298.297 39.795,298.905 39.887 M101.700 40.287 C 102.305 40.378,103.295 40.378,103.900 40.287 C 104.505 40.195,104.010 40.120,102.800 40.120 C 101.590 40.120,101.095 40.195,101.700 40.287 M305.100 40.683 L 307.200 40.842 307.200 42.759 C 307.200 44.255,307.398 44.844,308.100 45.438 C 308.994 46.195,308.995 46.194,308.326 45.397 C 307.947 44.946,307.597 43.720,307.526 42.597 L 307.400 40.600 305.200 40.562 L 303.000 40.524 305.100 40.683 M100.120 42.800 C 100.120 44.010,100.195 44.505,100.287 43.900 C 100.378 43.295,100.378 42.305,100.287 41.700 C 100.195 41.095,100.120 41.590,100.120 42.800 M190.520 42.800 C 190.520 44.010,190.595 44.505,190.687 43.900 C 190.778 43.295,190.778 42.305,190.687 41.700 C 190.595 41.095,190.520 41.590,190.520 42.800 M217.320 48.000 C 217.320 49.210,217.395 49.705,217.487 49.100 C 217.578 48.495,217.578 47.505,217.487 46.900 C 217.395 46.295,217.320 46.790,217.320 48.000 M312.309 47.500 C 312.539 49.822,312.734 49.991,312.768 47.900 C 312.786 46.855,312.656 46.000,312.480 46.000 C 312.304 46.000,312.228 46.675,312.309 47.500 M218.900 50.687 C 219.505 50.778,220.495 50.778,221.100 50.687 C 221.705 50.595,221.210 50.520,220.000 50.520 C 218.790 50.520,218.295 50.595,218.900 50.687 M315.305 51.487 C 315.914 51.579,316.814 51.577,317.305 51.482 C 317.797 51.387,317.300 51.311,316.200 51.314 C 315.100 51.317,314.697 51.395,315.305 51.487 M318.562 55.900 C 319.156 56.602,319.745 56.800,321.241 56.800 L 323.158 56.800 323.317 58.900 L 323.476 61.000 323.438 58.800 L 323.400 56.600 321.403 56.474 C 320.280 56.403,319.054 56.053,318.603 55.674 C 317.806 55.005,317.805 55.006,318.562 55.900 M85.700 56.287 C 86.305 56.378,87.295 56.378,87.900 56.287 C 88.505 56.195,88.010 56.120,86.800 56.120 C 85.590 56.120,85.095 56.195,85.700 56.287 M84.120 58.800 C 84.120 60.010,84.195 60.505,84.287 59.900 C 84.378 59.295,84.378 58.305,84.287 57.700 C 84.195 57.095,84.120 57.590,84.120 58.800 M174.394 58.881 C 174.287 60.136,174.346 61.016,174.524 60.837 C 174.703 60.658,174.790 59.631,174.718 58.556 L 174.587 56.600 174.394 58.881 M206.962 58.800 L 207.000 61.000 209.200 61.038 L 211.400 61.076 209.320 60.918 L 207.240 60.760 207.082 58.680 L 206.924 56.600 206.962 58.800 M190.500 58.676 C 190.885 58.776,191.515 58.776,191.900 58.676 C 192.285 58.575,191.970 58.493,191.200 58.493 C 190.430 58.493,190.115 58.575,190.500 58.676 M192.800 58.925 C 192.800 58.994,193.385 59.579,194.100 60.225 L 195.400 61.400 194.225 60.100 C 193.130 58.888,192.800 58.616,192.800 58.925 M79.232 63.900 C 79.266 65.991,79.461 65.822,79.691 63.500 C 79.772 62.675,79.696 62.000,79.520 62.000 C 79.344 62.000,79.214 62.855,79.232 63.900 M216.309 63.500 C 216.539 65.822,216.734 65.991,216.768 63.900 C 216.786 62.855,216.656 62.000,216.480 62.000 C 216.304 62.000,216.228 62.675,216.309 63.500 M197.232 62.830 C 197.214 63.177,197.695 63.897,198.300 64.430 L 199.400 65.400 198.551 64.400 C 198.084 63.850,197.603 63.130,197.482 62.800 C 197.295 62.286,197.259 62.291,197.232 62.830 M240.100 66.687 C 240.705 66.778,241.695 66.778,242.300 66.687 C 242.905 66.595,242.410 66.520,241.200 66.520 C 239.990 66.520,239.495 66.595,240.100 66.687 M222.514 69.400 C 222.517 70.500,222.595 70.903,222.687 70.295 C 222.779 69.686,222.777 68.786,222.682 68.295 C 222.587 67.803,222.511 68.300,222.514 69.400 M181.549 69.900 C 181.071 70.509,181.078 70.540,181.600 70.135 C 181.930 69.880,182.740 69.592,183.400 69.495 L 184.600 69.320 183.349 69.260 C 182.577 69.223,181.888 69.468,181.549 69.900 M329.537 72.063 C 330.027 72.714,334.134 73.337,333.739 72.700 C 333.636 72.535,332.789 72.400,331.856 72.400 C 330.923 72.400,329.908 72.175,329.599 71.900 C 329.127 71.478,329.117 71.504,329.537 72.063 M224.505 72.287 C 225.114 72.379,226.014 72.377,226.505 72.282 C 226.997 72.187,226.500 72.111,225.400 72.114 C 224.300 72.117,223.897 72.195,224.505 72.287 M73.320 74.800 C 73.320 76.010,73.395 76.505,73.487 75.900 C 73.578 75.295,73.578 74.305,73.487 73.700 C 73.395 73.095,73.320 73.590,73.320 74.800 M153.328 75.200 C 153.328 76.630,153.401 77.215,153.489 76.500 C 153.578 75.785,153.578 74.615,153.489 73.900 C 153.401 73.185,153.328 73.770,153.328 75.200 M249.324 75.000 C 249.326 76.320,249.401 76.812,249.490 76.093 C 249.579 75.374,249.577 74.294,249.486 73.693 C 249.395 73.092,249.322 73.680,249.324 75.000 M177.634 74.953 L 176.669 76.200 177.813 75.112 C 178.443 74.514,178.877 73.953,178.779 73.865 C 178.680 73.777,178.165 74.267,177.634 74.953 M226.001 76.998 C 225.486 77.548,225.139 78.064,225.232 78.146 C 225.324 78.228,225.819 77.778,226.330 77.147 C 227.476 75.735,227.274 75.644,226.001 76.998 M68.561 78.558 C 68.443 78.865,68.408 79.810,68.483 80.658 C 68.610 82.087,68.634 82.046,68.810 80.100 C 69.004 77.956,68.941 77.567,68.561 78.558 M334.520 80.000 C 334.520 81.210,334.595 81.705,334.687 81.100 C 334.778 80.495,334.778 79.505,334.687 78.900 C 334.595 78.295,334.520 78.790,334.520 80.000 M192.100 78.676 C 192.485 78.776,193.115 78.776,193.500 78.676 C 193.885 78.575,193.570 78.493,192.800 78.493 C 192.030 78.493,191.715 78.575,192.100 78.676 M175.163 82.524 C 175.342 82.703,176.369 82.790,177.444 82.718 L 179.400 82.587 177.119 82.394 C 175.864 82.287,174.984 82.346,175.163 82.524 M246.600 82.400 L 244.200 82.666 246.476 82.733 C 247.728 82.770,248.864 82.620,249.000 82.400 C 249.136 82.180,249.192 82.030,249.124 82.067 C 249.056 82.104,247.920 82.254,246.600 82.400 M217.634 84.153 L 216.669 85.400 217.813 84.312 C 218.443 83.714,218.877 83.153,218.779 83.065 C 218.680 82.977,218.165 83.467,217.634 84.153 M239.270 85.100 L 239.340 87.000 239.492 85.322 C 239.641 83.671,239.671 83.641,241.322 83.492 L 243.000 83.340 241.100 83.270 L 239.200 83.200 239.270 85.100 M181.616 84.041 C 181.596 84.855,183.224 87.280,183.950 87.519 C 184.253 87.619,184.103 87.303,183.617 86.817 C 183.131 86.331,182.485 85.363,182.182 84.667 C 181.879 83.970,181.624 83.688,181.616 84.041 M339.720 85.600 C 339.720 86.810,339.795 87.305,339.887 86.700 C 339.978 86.095,339.978 85.105,339.887 84.500 C 339.795 83.895,339.720 84.390,339.720 85.600 M64.505 88.287 C 65.114 88.379,66.014 88.377,66.505 88.282 C 66.997 88.187,66.500 88.111,65.400 88.114 C 64.300 88.117,63.897 88.195,64.505 88.287 M190.514 90.600 C 190.517 91.700,190.595 92.103,190.687 91.495 C 190.779 90.886,190.777 89.986,190.682 89.495 C 190.587 89.003,190.511 89.500,190.514 90.600 M191.163 93.324 C 191.342 93.503,192.369 93.590,193.444 93.518 L 195.400 93.387 193.119 93.194 C 191.864 93.087,190.984 93.146,191.163 93.324 M165.700 93.487 C 166.305 93.578,167.295 93.578,167.900 93.487 C 168.505 93.395,168.010 93.320,166.800 93.320 C 165.590 93.320,165.095 93.395,165.700 93.487 M169.320 96.000 C 169.320 97.210,169.395 97.705,169.487 97.100 C 169.578 96.495,169.578 95.505,169.487 94.900 C 169.395 94.295,169.320 94.790,169.320 96.000 M228.575 97.300 L 227.400 98.600 228.700 97.425 C 229.415 96.779,230.000 96.194,230.000 96.125 C 230.000 95.816,229.670 96.088,228.575 97.300 M58.905 99.487 C 59.514 99.579,60.414 99.577,60.905 99.482 C 61.397 99.387,60.900 99.311,59.800 99.314 C 58.700 99.317,58.297 99.395,58.905 99.487 M224.175 100.500 L 223.000 101.800 224.300 100.625 C 225.015 99.979,225.600 99.394,225.600 99.325 C 225.600 99.016,225.270 99.288,224.175 100.500 M345.919 104.460 C 346.073 104.604,347.047 104.786,348.081 104.863 C 349.116 104.940,349.836 104.885,349.681 104.740 C 349.527 104.596,348.553 104.414,347.519 104.337 C 346.484 104.260,345.764 104.315,345.919 104.460 M57.354 109.200 C 57.354 111.950,57.418 113.075,57.496 111.700 C 57.574 110.325,57.574 108.075,57.496 106.700 C 57.418 105.325,57.354 106.450,57.354 109.200 M180.249 105.550 C 181.402 106.780,185.140 108.874,184.589 107.982 C 184.455 107.765,183.683 107.311,182.873 106.973 C 182.063 106.634,180.860 105.876,180.200 105.288 L 179.000 104.218 180.249 105.550 M186.800 110.600 C 187.546 111.370,188.247 112.000,188.357 112.000 C 188.467 112.000,187.946 111.370,187.200 110.600 C 186.454 109.830,185.753 109.200,185.643 109.200 C 185.533 109.200,186.054 109.830,186.800 110.600 M52.124 117.800 C 52.126 119.120,52.201 119.612,52.290 118.893 C 52.379 118.174,52.377 117.094,52.286 116.493 C 52.195 115.892,52.122 116.480,52.124 117.800 M353.280 120.680 L 355.160 120.842 355.315 122.823 L 355.470 124.805 355.435 122.702 L 355.400 120.600 353.400 120.559 L 351.400 120.518 353.280 120.680 M355.724 128.200 C 355.726 129.520,355.801 130.012,355.890 129.293 C 355.979 128.574,355.977 127.494,355.886 126.893 C 355.795 126.292,355.722 126.880,355.724 128.200 M358.479 136.680 L 360.358 136.842 360.512 138.521 L 360.665 140.200 360.633 138.400 L 360.600 136.600 358.600 136.559 L 356.600 136.518 358.479 136.680 M44.200 151.600 L 42.200 151.874 44.076 151.937 C 45.108 151.972,46.064 151.820,46.200 151.600 C 46.336 151.380,46.392 151.228,46.324 151.263 C 46.256 151.297,45.300 151.449,44.200 151.600 M98.985 155.295 C 98.878 155.575,98.837 162.373,98.895 170.402 L 99.000 185.000 109.400 185.000 L 119.800 185.000 119.800 170.000 L 119.800 155.000 109.490 154.893 C 101.440 154.810,99.137 154.898,98.985 155.295 M276.185 155.295 C 276.078 155.575,276.037 162.373,276.095 170.402 L 276.200 185.000 286.600 185.000 L 297.000 185.000 297.000 170.000 L 297.000 155.000 286.690 154.893 C 278.640 154.810,276.337 154.898,276.185 155.295 M41.357 162.800 C 41.357 165.770,41.420 166.985,41.497 165.500 C 41.574 164.015,41.574 161.585,41.497 160.100 C 41.420 158.615,41.357 159.830,41.357 162.800 M362.600 163.003 C 363.514 163.321,365.929 163.409,365.748 163.116 C 365.641 162.942,364.798 162.814,363.876 162.832 C 362.954 162.849,362.380 162.926,362.600 163.003 M39.000 173.600 L 37.000 173.874 38.876 173.937 C 39.908 173.972,40.864 173.820,41.000 173.600 C 41.136 173.380,41.192 173.228,41.124 173.263 C 41.056 173.297,40.100 173.449,39.000 173.600 M366.555 178.600 C 366.556 181.460,366.620 182.578,366.697 181.083 C 366.774 179.589,366.774 177.249,366.696 175.883 C 366.618 174.518,366.555 175.740,366.555 178.600 M36.520 176.000 C 36.520 177.210,36.595 177.705,36.687 177.100 C 36.778 176.495,36.778 175.505,36.687 174.900 C 36.595 174.295,36.520 174.790,36.520 176.000 M366.920 186.800 C 366.920 188.010,366.995 188.505,367.087 187.900 C 367.178 187.295,367.178 186.305,367.087 185.700 C 366.995 185.095,366.920 185.590,366.920 186.800 M182.900 186.700 C 192.305 186.760,207.695 186.760,217.100 186.700 C 226.505 186.640,218.810 186.591,200.000 186.591 C 181.190 186.591,173.495 186.640,182.900 186.700 M367.457 189.692 C 367.562 189.861,368.437 190.000,369.403 190.000 L 371.158 190.000 371.317 192.100 L 371.476 194.200 371.438 192.000 L 371.400 189.800 369.333 189.592 C 368.197 189.478,367.352 189.523,367.457 189.692 M371.767 202.600 C 371.767 206.780,371.826 208.436,371.898 206.279 C 371.971 204.123,371.970 200.703,371.898 198.679 C 371.825 196.656,371.766 198.420,371.767 202.600 M32.700 205.882 C 33.195 205.978,34.005 205.978,34.500 205.882 C 34.995 205.787,34.590 205.709,33.600 205.709 C 32.610 205.709,32.205 205.787,32.700 205.882 M31.314 207.800 C 31.317 208.900,31.395 209.303,31.487 208.695 C 31.579 208.086,31.577 207.186,31.482 206.695 C 31.387 206.203,31.311 206.700,31.314 207.800 M30.531 223.400 C 30.533 224.940,30.605 225.521,30.692 224.691 C 30.779 223.861,30.777 222.601,30.689 221.891 C 30.600 221.181,30.529 221.860,30.531 223.400 M199.062 221.700 C 199.164 221.865,199.586 222.000,200.000 222.000 C 200.414 222.000,200.836 221.865,200.938 221.700 C 201.040 221.535,200.618 221.400,200.000 221.400 C 199.382 221.400,198.960 221.535,199.062 221.700 M377.331 228.600 C 377.333 230.140,377.405 230.721,377.492 229.891 C 377.579 229.061,377.577 227.801,377.489 227.091 C 377.400 226.381,377.329 227.060,377.331 228.600 M27.305 226.687 C 27.914 226.779,28.814 226.777,29.305 226.682 C 29.797 226.587,29.300 226.511,28.200 226.514 C 27.100 226.517,26.697 226.595,27.305 226.687 M25.294 261.476 C 25.242 280.218,25.335 295.636,25.500 295.738 C 25.772 295.906,25.769 271.480,25.493 239.600 C 25.435 232.890,25.346 242.734,25.294 261.476 M382.400 266.480 C 382.290 282.694,382.336 295.824,382.503 295.657 C 382.669 295.491,382.759 282.225,382.703 266.177 L 382.600 237.000 382.400 266.480 M30.531 299.400 C 30.533 300.940,30.605 301.521,30.692 300.691 C 30.779 299.861,30.777 298.601,30.689 297.891 C 30.600 297.181,30.529 297.860,30.531 299.400 M31.163 306.524 C 31.342 306.703,32.369 306.790,33.444 306.718 L 35.400 306.587 33.119 306.394 C 31.864 306.287,30.984 306.346,31.163 306.524 M374.400 306.400 L 371.800 306.662 374.276 306.731 C 375.638 306.769,376.864 306.620,377.000 306.400 C 377.136 306.180,377.192 306.031,377.124 306.069 C 377.056 306.107,375.830 306.256,374.400 306.400 M366.528 314.400 C 366.528 315.830,366.601 316.415,366.689 315.700 C 366.778 314.985,366.778 313.815,366.689 313.100 C 366.601 312.385,366.528 312.970,366.528 314.400 M41.314 314.600 C 41.317 315.700,41.395 316.103,41.487 315.495 C 41.579 314.886,41.577 313.986,41.482 313.495 C 41.387 313.003,41.311 313.500,41.314 314.600 M353.600 338.400 L 351.400 338.670 353.476 338.735 C 354.618 338.771,355.664 338.620,355.800 338.400 C 355.936 338.180,355.992 338.029,355.924 338.065 C 355.856 338.101,354.810 338.252,353.600 338.400 M53.705 338.687 C 54.314 338.779,55.214 338.777,55.705 338.682 C 56.197 338.587,55.700 338.511,54.600 338.514 C 53.500 338.517,53.097 338.595,53.705 338.687 M57.246 341.476 C 57.221 342.618,57.338 343.638,57.507 343.743 C 57.676 343.847,57.757 343.183,57.686 342.266 C 57.479 339.575,57.296 339.247,57.246 341.476 M350.520 341.600 C 350.520 342.810,350.595 343.305,350.687 342.700 C 350.778 342.095,350.778 341.105,350.687 340.500 C 350.595 339.895,350.520 340.390,350.520 341.600 M342.800 354.400 L 340.600 354.670 342.676 354.735 C 343.818 354.771,344.864 354.620,345.000 354.400 C 345.136 354.180,345.192 354.029,345.124 354.065 C 345.056 354.101,344.010 354.252,342.800 354.400 M68.398 357.137 L 68.600 359.400 70.863 359.602 C 72.107 359.713,73.042 359.668,72.939 359.502 C 72.837 359.336,71.863 359.200,70.776 359.200 L 68.800 359.200 68.800 357.224 C 68.800 356.137,68.664 355.163,68.498 355.061 C 68.332 354.958,68.287 355.893,68.398 357.137 M334.394 362.881 C 334.287 364.136,334.346 365.016,334.524 364.837 C 334.703 364.658,334.790 363.631,334.718 362.556 L 334.587 360.600 334.394 362.881 M328.337 368.200 C 328.259 369.190,328.331 370.000,328.497 370.000 C 328.664 370.000,328.800 369.190,328.800 368.200 C 328.800 367.210,328.728 366.400,328.640 366.400 C 328.552 366.400,328.416 367.210,328.337 368.200 M84.363 370.524 C 84.542 370.703,85.569 370.790,86.644 370.718 L 88.600 370.587 86.319 370.394 C 85.064 370.287,84.184 370.346,84.363 370.524 M320.707 370.690 C 321.426 370.779,322.506 370.777,323.107 370.686 C 323.708 370.595,323.120 370.522,321.800 370.524 C 320.480 370.526,319.988 370.601,320.707 370.690 M89.246 373.476 C 89.221 374.618,89.338 375.638,89.507 375.743 C 89.676 375.847,89.757 375.183,89.686 374.266 C 89.479 371.575,89.296 371.247,89.246 373.476 M318.394 373.681 C 318.287 374.936,318.346 375.816,318.524 375.637 C 318.703 375.458,318.790 374.431,318.718 373.356 L 318.587 371.400 318.394 373.681 M302.394 378.881 C 302.287 380.136,302.346 381.016,302.524 380.837 C 302.703 380.658,302.790 379.631,302.718 378.556 L 302.587 376.600 302.394 378.881 M280.337 384.200 C 280.259 385.190,280.331 386.000,280.497 386.000 C 280.664 386.000,280.800 385.190,280.800 384.200 C 280.800 383.210,280.728 382.400,280.640 382.400 C 280.552 382.400,280.416 383.210,280.337 384.200 M136.300 386.700 C 141.415 386.763,149.785 386.763,154.900 386.700 C 160.015 386.636,155.830 386.585,145.600 386.585 C 135.370 386.585,131.185 386.636,136.300 386.700 M248.128 386.700 C 253.368 386.763,261.828 386.763,266.928 386.700 C 272.027 386.636,267.740 386.585,257.400 386.585 C 247.060 386.585,242.887 386.637,248.128 386.700 M170.707 387.090 C 171.426 387.179,172.506 387.177,173.107 387.086 C 173.708 386.995,173.120 386.922,171.800 386.924 C 170.480 386.926,169.988 387.001,170.707 387.090 M174.509 389.600 C 174.509 390.590,174.587 390.995,174.682 390.500 C 174.778 390.005,174.778 389.195,174.682 388.700 C 174.587 388.205,174.509 388.610,174.509 389.600 M230.400 391.200 L 228.200 391.470 230.276 391.535 C 231.418 391.571,232.464 391.420,232.600 391.200 C 232.736 390.980,232.792 390.829,232.724 390.865 C 232.656 390.901,231.610 391.052,230.400 391.200 M177.900 391.896 C 179.275 391.974,181.525 391.974,182.900 391.896 C 184.275 391.818,183.150 391.754,180.400 391.754 C 177.650 391.754,176.525 391.818,177.900 391.896 M223.900 391.889 C 224.615 391.978,225.785 391.978,226.500 391.889 C 227.215 391.801,226.630 391.728,225.200 391.728 C 223.770 391.728,223.185 391.801,223.900 391.889 " stroke="none" fill="#cc0404" fill-rule="evenodd"></path></g></svg>